<svg width="32" height="32" viewBox="0 0 32 32" fill="none" xmlns="http://www.w3.org/2000/svg">
<g clip-path="url(#clip0_6_2)">
<path d="M32 16.2909C32 24.9668 29.6727 32 16.2909 32C7.61502 32 0 29.0395 0 20.3636C0 11.6877 4.12411 0 12.8 0C21.4759 0 30.8364 6.98182 32 16.2909Z" fill="black"/>
<path d="M26.1061 23.5194C27.3151 22.0984 28.1236 20.381 28.4484 18.5438C28.7733 16.7067 28.6028 14.8162 27.9545 13.0668C27.3062 11.3174 26.2035 9.77232 24.7599 8.59055C23.3163 7.40879 21.5838 6.63301 19.7408 6.34303L18.9094 11.6272C19.8135 11.7694 20.6634 12.15 21.3716 12.7297C22.0798 13.3094 22.6207 14.0674 22.9387 14.9255C23.2568 15.7837 23.3404 16.7111 23.181 17.6124C23.0217 18.5136 22.625 19.3561 22.032 20.0532L26.1061 23.5194Z" fill="white"/>
<path d="M19.1718 25.4973C20.3807 24.0763 21.1892 22.3589 21.5141 20.5218C21.839 18.6846 21.6685 16.7941 21.0202 15.0447C20.3719 13.2953 19.2692 11.7502 17.8256 10.5685C16.3819 9.38669 14.6495 8.61091 12.8065 8.32094L11.9751 13.6051C12.8792 13.7473 13.7291 14.1279 14.4373 14.7076C15.1455 15.2873 15.6864 16.0453 16.0044 16.9035C16.3224 17.7616 16.4061 18.6891 16.2467 19.5903C16.0873 20.4915 15.6907 21.334 15.0977 22.0311L19.1718 25.4973Z" fill="white"/>
<path d="M12.237 27.4751C13.4459 26.0542 14.2544 24.3368 14.5793 22.4996C14.9042 20.6625 14.7337 18.7719 14.0854 17.0225C13.4371 15.2731 12.3344 13.7281 10.8908 12.5463C9.44712 11.3646 7.71469 10.5888 5.87171 10.2988L5.04031 15.5829C5.9444 15.7252 6.79426 16.1057 7.50245 16.6855C8.21064 17.2652 8.75158 18.0231 9.06961 18.8813C9.38763 19.7395 9.47126 20.6669 9.31189 21.5681C9.15252 22.4694 8.75591 23.3119 8.16286 24.0089L12.237 27.4751Z" fill="white"/>
</g>
<defs>
<clipPath id="clip0_6_2">
<rect width="32" height="32" fill="white"/>
</clipPath>
</defs>
</svg>
